<?xml version="1.0" encoding="utf-8"?>
<!-- Generator: Adobe Illustrator 27.5.0, SVG Export Plug-In . SVG Version: 6.00 Build 0)  -->
<svg version="1.1" id="Layer_1" xmlns="http://www.w3.org/2000/svg" xmlns:xlink="http://www.w3.org/1999/xlink" x="0px" y="0px"
	 viewBox="0 0 1280 277.1" style="enable-background:new 0 0 1280 277.1;" xml:space="preserve">
<style type="text/css">
	.st0{fill:#07151B;}
</style>
<path class="st0" d="M1091.8,110.2c14.6-19.7,22.2-36.1,22.2-46.6c0-3.6,0-3.6,3.3-2.4c1.3,0.6,6.6,2.4,11.9,4.2
	c9.6,3,15.2,5.4,18.8,7.8c1.3,0.6,6.3,3.3,11.6,5.7c5.3,2.4,15.5,7.8,23.5,11.9c29.4,16.1,49.2,25.4,59.8,28.4
	c24.8,7.2,42.3,16.1,60.8,31.4c3,2.4,3,2.1,3-2.1v-3.3l-4-3c-2-1.8-4.9-3.9-5.9-4.8c-9.2-7.5-28.4-16.1-49.9-22.7
	c-4-1.2-12.9-4.8-19.8-8.1c-12.6-5.7-14.9-7.2-34.7-17.6c-12.2-6.6-32.1-16.7-33-16.7c-0.7,0-15.2-7.8-16.2-8.7
	c-0.3-0.3-1.3-0.6-2-0.9c-2-0.6-9.9-3.3-12.2-4.5c-10.9-4.8-34-11.6-49.2-14.6c-3.6-0.6-7.9-1.5-9.6-1.8c-6.3-1.2-6.9-1.2-37,13.1
	c-13.2,6.3-26.4,12.8-36.7,18.5c-8.3,4.5-18.5,9-34,15.2c-16.2,6.6-23.1,9.3-30.7,11.9c-4.6,1.8-10.2,3.9-12.6,4.8
	c-3.6,1.5-13.2,4.5-25.4,8.4c-8.3,2.7-18.5,7.8-26.1,12.8c-3.6,2.4-8.3,5.7-10.6,6.9c-2,1.2-4.6,3-5.6,3.6c-5,3.9-6.3,4.8-9.3,6.3
	l-3.6,1.5l-5.6-2.1c-3.3-1.2-9.9-3.9-15.5-6.3c-11.2-5.1-17.5-6.6-28.4-7.5c-7.6-0.6-12.6-1.5-12.6-2.4c0-0.3-0.7-0.6-1.3-0.9
	c-0.7-0.3-3.3-2.1-5.6-3.9c-4-3-6.6-5.4-17.2-14.3c-1.7-1.5-5.9-4.8-9.6-7.5c-3.6-2.7-6.9-5.1-7.3-5.4c-0.3-0.3-1.7-1.2-3-2.1
	c-1-0.9-4-3-5.9-4.8c-5.6-4.8-17.5-14.6-20.2-16.7c-1.3-0.9-4-3.3-6.3-5.1C688.2,55.6,682.3,55,665.7,61c-3.3,1.2-9.6,3-14.2,4.2
	c-4.6,1.2-11.2,3.3-15.2,4.8c-20.5,7.8-26.8,9.6-41.6,13.4c-24.1,6-35.7,9-42,10.5c-5.3,1.5-15.5,3.3-47.3,8.7
	c-29.1,5.1-42.6,7.2-54.9,8.7c-15.2,2.1-21.5,3-31.1,4.8c-27.4,5.1-25.4,4.8-30.7,2.1c-8.6-4.2-13.6-9.3-14.9-14.9
	c-1.3-5.1-2.6-7.2-6.3-10.2c-4-3.3-15.2-12.8-21.5-18.2c-6.9-6.3-9.3-9.6-10.9-14.3c-0.7-2.4-2-6.3-2.6-8.4c-0.7-2.1-1.7-6.3-2-8.7
	c-1-7.2-2.6-11.6-5.9-18.2c-2.6-5.1-3-6.6-3-9.9c0-8.1-3-9.9-13.9-8.1c-5.3,0.9-14.9,4.2-21.2,7.2c-3.3,1.5-8.9,4.2-12.6,6
	c-7.9,3.6-30.7,15.5-35,17.9c-1.7,0.9-5.9,3.3-9.3,5.1c-6.3,3.3-11.2,6-19.5,10.8s-14.9,8.4-24.8,13.1c-12.9,6.3-27.4,14-35.4,18.5
	c-3.3,1.8-7.9,4.5-9.9,5.4c-14.9,8.1-42.3,24.8-48.6,30.2c-1.7,1.2-8.3,6-14.9,10.5c-11.6,7.8-24.1,16.4-24.8,17.3
	c-0.3,0.3-4,3-8.6,6.3s-8.9,6.6-9.9,7.5s-3.3,2.4-5.3,3.9c-12.6,9.6-21.5,17-33,27.5l-9.9,9.9l0.3,56.1l0.3,56.1h3
	c1.7,0,5.6,0,8.9-0.3c3.3,0,15.2,0,26.8,0.3s23.5,0.3,26.1,0.3c3,0,5.9,0,7.3,0c1,0,17.5,0,36.4,0c18.8,0,48.3,0.3,65.4,0.6
	c71.1,1.5,142.4,2.1,156.7,0.9c5-0.3,13.2-0.6,17.8-0.6c4.6,0,28.1,0,51.9-0.3s53.2,0,65.4,0.3c12.2,0.3,23.1,0.3,24.8,0
	c2.3-0.3,1.3-0.6-5-0.6c-7.3-0.3-0.7-0.3,64.4-1.8c16.2-0.3,73.7-0.9,127.6-1.2c54.2-0.3,110.1-0.9,123.9-0.9
	c13.9-0.3,82.3-0.6,151.4-1.2c69.4-0.6,134.5-1.2,144.8-1.5c10.2-0.3,50.2-0.6,88.9-0.6c38.7,0,70.7,0,71.7-0.3
	c0.7,0,15.2-0.3,32.1-0.3h30.7V264l-50.2,0.3c-100.1,0.9-276.3,1.8-284.9,1.5l-8.9-0.3l3.3-3.3c4.3-4.8,17.8-15.2,21.8-17.3
	c4.6-2.4,40.3-11.9,80.6-22.1c31.7-7.8,31.7-7.8,34-10.2c1.3-1.5,8.9-3.9,13.5-4.5c2-0.3,5.3-0.9,6.9-1.5c1.7-0.6,5-1.5,7.3-2.1
	s4.6-1.2,5-1.5c1.3-0.9,15.9-6,23.5-8.1c4.3-1.2,10.6-3,14.5-4.2c3.6-1.2,10.9-3,15.5-4.2s9.9-2.7,11.6-3.3c1.7-0.6,5.6-1.2,8.9-1.2
	s8.9-0.6,12.9-0.9c12.2-1.2,26.4-1.8,43.6-2.1c9.2-0.3,22.1-0.6,28.8-0.6l11.9-0.3v-5.4l-3.3,0.3c-1.7,0-11.2,0.3-21.2,0.6
	c-20.5,0.3-37.7,1.2-51.6,2.4c-5.3,0.6-12.6,0.9-16.5,0.9c-9.9,0-17.5,1.2-32.4,5.4c-7.6,2.1-15.2,3.9-17.8,4.2
	c-2.6,0.3-8.6,0.9-13.2,1.5s-15.2,1.8-23.8,2.4c-8.6,0.6-16.5,1.5-17.5,1.5c-4.6,0.6-32.7,2.4-60.2,3.6c-16.2,0.6-31.4,1.5-34,1.5
	c-3.6,0.3-4.3,0-3-0.3c1.3-0.6,103.5-28.1,140.1-37.9c3-0.9,4.9-1.8,4.9-2.1c0-0.6,4.3-2.4,10.2-4.8c11.9-4.5,14.2-5.7,15.2-7.8
	c2.7-5.4,0-5.7-23.5-3.3c-6.9,0.6-7.3,0.6-9.9-0.6c-3.6-1.8-4.3-1.8-11.2,0.6c-8.6,2.7-12.2,2.7-39-0.9c-6.3-0.9-14.5-1.8-17.5-2.4
	l-5.6-1.5l1-2.4C1079.6,128.4,1085.9,118.6,1091.8,110.2z M379.6,125.1c-3,0.9-6.6,2.1-7.9,2.7c-1.7,0.6-7.3,2.4-12.6,4.2
	c-9.9,3-28.8,11-34.7,14.6c-3.6,2.4-3.6,2.4-3.6,0.9c0-2.7-3.3-10.2-7.9-19.4c-3-5.4-5.9-11.6-6.9-14.3
	c-5.3-12.5-8.3-16.7-11.9-15.8c-2.6,0.6-19.2,21.2-29.4,36.4c-6.6,9.9-9.6,13.4-15.5,18.8c-3.6,3.3-8.6,8.4-11.6,11.3
	c-8.6,9.3-15.5,15.2-24.8,20.6c-9.3,5.7-27.8,16.7-33.1,19.7c-5.9,3.3-6.9,4.2-16.2,11.6c-8.6,7.2-8.3,6.9-14.2,11
	c-7.9,5.4-20.5,12.2-21.2,11.6c0,0,0-1.5,0.3-2.7c2-7.2,1.3-17.6-1-20.6c-1.7-2.1-2.6-2.1-29.4-3.6c-21.2-1.2-34-1.8-77.7-3.3
	l-19.8-0.6l9.9-2.1c13.2-2.7,19.2-3.3,52.2-6.9c5-0.6,13.2-0.9,18.2-0.9c14.5,0,17.2-0.9,37-11.6c4.3-2.4,9.9-5.4,12.6-6.6l4.6-2.1
	l15.2-0.3c8.9-0.3,17.2-0.6,18.5-0.9c2.3-0.3,11.9-8.4,17.2-14.6c4.3-5.1,9.3-10.5,11.6-12.5c4-3.9,12.6-14.9,12.9-16.7
	c1-4.8,2-7.8,4.3-12.2c3.6-7.2,5.6-12.8,5.6-14.9c0-3.3,10.2-10.2,24.5-16.7c21.8-9.9,28.1-15.5,39.7-35.5
	c9.6-16.7,22.1-33.1,29.1-37.9l2.6-1.8l0.3,4.8c0.3,3.9,1,6,3.3,10.5c2,3.9,3.3,7.8,4.3,12.2c5.9,28.4,8.6,32.2,38.3,55.8
	c4.3,3.6,5.3,5.1,6.3,9.3c1.3,6,5.9,11,12.9,15.2l3,1.8L379.6,125.1z M684.3,251.1c-3,2.1-5.9,3.9-5.9,3.9c-3.6,3.6-7.6,5.4-8.9,4.2
	c-7.6-8.4-64.1-27.2-86.3-29c-7.9-0.6-15.2-1.8-39.7-6.9c-19.2-3.9-30.1-4.8-37.7-3c-7.3,1.8-23.8,7.5-31.7,11
	c-4.6,2.1-9.9,4.2-11.6,4.8l-3.3,1.2l-3.6-1.8c-6.6-3.6-37-16.7-44.6-19.4c-20.5-7.2-24.5-8.4-24.5-9s8.3-2.7,14.9-3.9
	c9.6-1.8,27.4-7.2,29.7-9c3-2.1,4.6-5.1,6.3-13.1c1.7-7.2,3.6-10.8,8.9-16.1c1.7-1.8,3.3-4.2,3.6-5.4c1.7-5.7,2-8.4,2-13.1
	c0-6-0.3-6,7.3-1.8c2.6,1.5,9.3,5.1,14.5,7.8c5.3,2.7,12.2,6.6,15.5,8.4c6.6,3.6,22.8,11.3,34.7,16.7c6.6,3,10.6,4.2,19.2,6.3
	c23.8,5.4,44.6,13.1,60.2,22.1c7.9,4.8,17.5,10.5,24.5,14.9c7.3,4.8,13.6,8.1,16.5,8.7c2,0.3,12.9,4.2,17.8,6.3c1,0.3,4,1.2,6.3,1.8
	c4,1.2,12.2,4.8,18.5,8.1l3.3,1.8L684.3,251.1z M787.5,162.2c-4,1.5-9.9,3.6-13.2,4.8c-3.3,1.2-6.9,2.4-8.6,3
	c-1.3,0.6-6.6,2.4-11.9,3.6c-6.6,1.8-12.2,3.9-17.8,6.6c-4.6,2.1-10.9,4.8-13.9,6c-7.9,2.7-20.2,9-22.8,11.9
	c-0.3,0.3-4.3,3.3-9.9,6.9c-1.3,0.9-4.6,3.6-7.9,6.3l-5.6,4.8l-4.6-1.2c-6.6-1.8-14.5-4.8-14.2-5.7c0-0.3,1.3-4.5,2.6-9.3
	c3.3-11,5.9-23.6,5.6-25.4c-0.7-1.8-2-2.1-10.9-1.5c-13.2,1.2-18.8,2.4-25.8,6.3l-2.6,1.5l-3-2.7c-3.3-3-8.9-6-13.2-7.5
	c-7.3-2.1-9.9-6.9-10.6-18.5c-0.7-10.8-2.6-11.6-10.6-4.2c-5.6,5.1-8.3,6.6-20.2,12.2l-10.9,5.1l-5-3c-12.2-7.5-35.4-28.7-32.1-29.6
	c12.9-3.9,34.7-5.1,51.2-3.3c6.6,0.6,10.6,0,13.6-2.7c3.3-3,15.5-11.6,20.5-14.6c9.3-5.7,12.9-8.1,20.5-13.1
	c6.9-4.8,9.9-6.6,21.8-13.4c3.6-2.1,8.9-5.1,11.2-6.6c23.8-14.6,26.4-15.8,29.4-13.4c1,0.9,2.3,1.8,2.6,2.1c0.3,0.3,3.3,2.7,6.3,5.1
	c8.3,6.6,12.6,10.2,17.5,14.3c7.6,6.3,9.3,7.8,12.9,10.5c3.6,3,11.6,8.4,14.5,10.5c1,0.6,4.3,3.6,7.6,6.3
	c20.5,17.9,24.5,20,37.3,21.2c12.6,1.2,16.5,2.1,27.4,7.2c5,2.4,10.9,4.8,12.9,5.4s3.6,1.2,3.3,1.5c-0.7,0.9-5.9,3-9.9,3.9
	c-2.3,0.6-6.3,1.8-9.3,2.4c-3,0.9-7.9,2.1-11.2,2.7C797.4,158.9,791.4,160.7,787.5,162.2z M892.6,201.9c-36.7,1.5-61.5,4.2-85.9,9.3
	c-4,0.9-7.6,1.5-7.6,1.2c-0.3-0.3,4.6-15.2,5.3-16.1c0.3-0.3,1-1.8,1.7-3.3c4.3-10.2,24.8-30.5,37-36.4c7.9-3.9,6.9-3.9,12.6,0.6
	c2.6,2.1,5.6,5.4,6.9,7.2c3.3,5.4,11.9,14,19.2,19.4c1.7,1.2,5.6,4.5,8.9,7.5c3.3,2.7,7.3,6.3,8.9,7.5
	C903.1,201.6,903.5,201.3,892.6,201.9z"/>
</svg>
