<svg width="1280" height="296" viewBox="0 0 1280 296" fill="none" xmlns="http://www.w3.org/2000/svg">
<path d="M234 164.697C128.5 254.697 25.6228 198.772 -6 164.697V293H1288V174C1256.22 106.81 1134.96 -13.5464 987.116 37.8056C868.844 78.8871 797.265 61.4515 765 51.1971C553.593 -15.9923 508.707 5.47136 488 10.4999C467.392 15.5044 365.16 52.8074 234 164.697Z" fill="#DEDACA" stroke="#DEDACA" stroke-width="6" stroke-linejoin="round"/>
<path d="M-6 187C25.6228 221.075 139 274 244.5 184C378 70.1138 475.392 33.5044 496 28.5C516.707 23.4714 553.593 6.31057 765 73.5C797.265 83.7544 868.844 101.19 987.116 60.1085C1134.96 8.75655 1251.22 133.311 1283 200.5" stroke="#ECC07A" stroke-width="6" stroke-linejoin="round"/>
<path d="M-44.5 188C-5.5 216 122 304.534 243.5 206.5C379.5 96.7661 469.57 55.7171 490.178 50.7126C510.885 45.684 547.003 24.3168 758.41 91.5062C790.675 101.761 869.844 118.19 988.116 77.1084C1135.96 25.7565 1247.72 157.811 1279.5 225" stroke="#BD5B34" stroke-width="6" stroke-linejoin="round"/>
<path d="M-10.5 227C4 244.5 139 314 244.5 227C388.191 108.506 478.392 72.5043 499 67.4999C519.707 62.4713 546.003 41.3167 757.41 108.506C789.675 118.761 868.844 135.19 987.116 94.1084C1134.96 42.7565 1247.22 186.31 1279 253.5" stroke="#A29F7F" stroke-width="6" stroke-linejoin="round"/>
</svg>
