<svg width="1280" height="289" viewBox="0 0 1280 289" fill="none" xmlns="http://www.w3.org/2000/svg">
<path d="M-6 203C25.6228 237.075 139 290 244.5 200C378 86.1138 475.392 49.5044 496 44.5C516.707 39.4714 553.593 22.3106 765 89.5C797.265 99.7544 868.844 117.19 987.116 76.1085C1134.96 24.7566 1251.22 149.311 1283 216.5" stroke="#ECC07A" stroke-width="6" stroke-linejoin="round"/>
<path d="M234 180.697C128.5 270.697 25.6228 214.772 -6 180.697V3H1288V190C1256.22 122.811 1134.96 2.4537 987.116 53.8056C868.844 94.8872 797.265 77.4516 765 67.1972C553.593 0.00771332 508.707 21.4714 488 26.5C467.392 31.5044 365.16 68.8074 234 180.697Z" fill="#07151B" stroke="#07151B" stroke-width="6" stroke-linejoin="round"/>
<path d="M-44.5 204C-5.5 232 122 320.534 243.5 222.5C379.5 112.766 469.57 71.7171 490.178 66.7126C510.885 61.684 547.003 40.3168 758.41 107.506C790.675 117.761 869.844 134.19 988.116 93.1084C1135.96 41.7565 1247.72 173.811 1279.5 241" stroke="#BD5B34" stroke-width="6" stroke-linejoin="round"/>
<path d="M-10.5 243C4 260.5 139 330 244.5 243C388.191 124.506 478.392 88.5043 499 83.4999C519.707 78.4713 546.003 57.3167 757.41 124.506C789.675 134.761 868.844 151.19 987.116 110.108C1134.96 58.7565 1247.22 202.31 1279 269.5" stroke="#A29F7F" stroke-width="6" stroke-linejoin="round"/>
</svg>
