<svg width="1274" height="250" viewBox="0 0 1274 250" fill="none" xmlns="http://www.w3.org/2000/svg">
<g clip-path="url(#clip0_288_79)">
<path d="M830.482 137.551C887.293 130.23 927.092 139.493 1087.53 161.397C1164.15 171.857 1227.49 153.976 1278.28 127.5L1278.28 249.5L-1.36957 264.091L-1.36956 76.1793C43.6551 70.4661 92.0405 76.5287 121.13 91.0003C289.621 174.821 451.679 184.035 502.472 186C586.966 189.268 701.408 154.183 830.482 137.551Z" fill="#BD5B34"/>
<path d="M-1.36956 62.4147C43.6551 56.7015 92.0405 62.7641 121.13 77.2356C289.621 161.057 451.679 170.271 502.472 172.235C586.966 175.504 701.408 140.418 830.482 123.786C897.13 115.198 927.092 125.728 1087.53 147.632C1164.15 158.092 1227.49 140.211 1278.28 113.736" stroke="#F4C779" stroke-width="6"/>
<path d="M-1.36956 46.4147C43.6551 40.7015 92.0405 46.7641 121.13 61.2356C289.621 145.057 451.679 154.271 502.472 156.235C586.966 159.504 701.408 124.418 830.482 107.786C897.13 99.1979 927.092 109.728 1087.53 131.632C1164.15 142.092 1227.49 124.211 1278.28 97.7356" stroke="#BD5B34" stroke-width="6"/>
<path d="M-1.36956 30.4147C43.6551 24.7015 92.0405 30.7641 121.13 45.2356C289.621 129.057 451.679 138.271 502.472 140.235C586.966 143.504 701.408 108.418 830.482 91.7859C897.13 83.1979 927.092 93.7284 1087.53 115.632C1164.15 126.092 1227.49 108.211 1278.28 81.7356" stroke="#A29F7F" stroke-width="6"/>
</g>
<defs>
<clipPath id="clip0_288_79">
<rect width="1274" height="250" fill="white"/>
</clipPath>
</defs>
</svg>
